<mxfile host="app.diagrams.net" modified="2020-09-14T13:59:24.317Z" agent="5.0 (Windows NT 10.0; Win64; x64) AppleWebKit/537.36 (KHTML, like Gecko) Chrome/81.0.4044.138 Safari/537.36 OPR/68.0.3618.206" etag="G3imkcoxoWmNXOkgHLib" version="13.6.10" type="github">
  <diagram id="Muwe3zWbvsygprKA4SwJ" name="Page-1">
    <mxGraphModel dx="1381" dy="764" grid="1" gridSize="10" guides="1" tooltips="1" connect="1" arrows="1" fold="1" page="1" pageScale="1" pageWidth="850" pageHeight="1100" math="0" shadow="0">
      <root>
        <mxCell id="0" />
        <mxCell id="1" parent="0" />
        <mxCell id="kqtZ1l1b22yVRVGchEDP-5" value="" style="ellipse;html=1;shape=startState;fillColor=#000000;strokeColor=#ff0000;" parent="1" vertex="1">
          <mxGeometry x="100" y="290" width="30" height="30" as="geometry" />
        </mxCell>
        <mxCell id="kqtZ1l1b22yVRVGchEDP-6" value="" style="edgeStyle=orthogonalEdgeStyle;html=1;verticalAlign=bottom;endArrow=open;endSize=8;strokeColor=#ff0000;entryX=0;entryY=0.5;entryDx=0;entryDy=0;" parent="1" source="kqtZ1l1b22yVRVGchEDP-5" edge="1">
          <mxGeometry relative="1" as="geometry">
            <mxPoint x="200" y="305" as="targetPoint" />
          </mxGeometry>
        </mxCell>
        <mxCell id="kqtZ1l1b22yVRVGchEDP-7" value="Start" style="text;align=center;fontStyle=1;verticalAlign=middle;spacingLeft=3;spacingRight=3;strokeColor=none;rotatable=0;points=[[0,0.5],[1,0.5]];portConstraint=eastwest;" parent="1" vertex="1">
          <mxGeometry x="120" y="269" width="80" height="26" as="geometry" />
        </mxCell>
        <mxCell id="kqtZ1l1b22yVRVGchEDP-8" value="End" style="text;align=center;fontStyle=1;verticalAlign=middle;spacingLeft=3;spacingRight=3;strokeColor=none;rotatable=0;points=[[0,0.5],[1,0.5]];portConstraint=eastwest;" parent="1" vertex="1">
          <mxGeometry x="120" y="320" width="80" height="26" as="geometry" />
        </mxCell>
        <mxCell id="kqtZ1l1b22yVRVGchEDP-11" value="" style="ellipse;html=1;shape=endState;fillColor=#000000;strokeColor=#ff0000;" parent="1" vertex="1">
          <mxGeometry x="100" y="325" width="30" height="30" as="geometry" />
        </mxCell>
        <mxCell id="kqtZ1l1b22yVRVGchEDP-13" value="" style="edgeStyle=orthogonalEdgeStyle;html=1;verticalAlign=bottom;endArrow=open;endSize=8;strokeColor=#ff0000;entryX=1;entryY=0.5;entryDx=0;entryDy=0;exitX=0;exitY=0.75;exitDx=0;exitDy=0;" parent="1" target="kqtZ1l1b22yVRVGchEDP-11" edge="1">
          <mxGeometry relative="1" as="geometry">
            <mxPoint x="210" y="315" as="targetPoint" />
            <mxPoint x="200" y="340" as="sourcePoint" />
          </mxGeometry>
        </mxCell>
        <mxCell id="kqtZ1l1b22yVRVGchEDP-21" style="edgeStyle=orthogonalEdgeStyle;rounded=0;orthogonalLoop=1;jettySize=auto;html=1;exitX=1;exitY=0.5;exitDx=0;exitDy=0;entryX=0;entryY=0.5;entryDx=0;entryDy=0;" parent="1" source="kqtZ1l1b22yVRVGchEDP-19" target="kqtZ1l1b22yVRVGchEDP-20" edge="1">
          <mxGeometry relative="1" as="geometry" />
        </mxCell>
        <mxCell id="kqtZ1l1b22yVRVGchEDP-19" value="Waiting for the command&lt;br&gt;&lt;hr&gt;&lt;div style=&quot;text-align: left&quot;&gt;&lt;span&gt;Entry:&lt;/span&gt;&lt;/div&gt;&lt;div style=&quot;text-align: left&quot;&gt;&lt;span&gt;Do:&lt;/span&gt;&lt;/div&gt;&lt;div style=&quot;text-align: left&quot;&gt;&lt;span&gt;Exit&lt;/span&gt;&lt;/div&gt;" style="rounded=1;whiteSpace=wrap;html=1;" parent="1" vertex="1">
          <mxGeometry x="200" y="260" width="190" height="128" as="geometry" />
        </mxCell>
        <mxCell id="kqtZ1l1b22yVRVGchEDP-24" style="edgeStyle=orthogonalEdgeStyle;rounded=0;orthogonalLoop=1;jettySize=auto;html=1;exitX=1;exitY=0.5;exitDx=0;exitDy=0;" parent="1" source="kqtZ1l1b22yVRVGchEDP-20" target="kqtZ1l1b22yVRVGchEDP-23" edge="1">
          <mxGeometry relative="1" as="geometry" />
        </mxCell>
        <mxCell id="kqtZ1l1b22yVRVGchEDP-20" value="Translating 2D photo into XML&lt;br&gt;&lt;hr&gt;&lt;div style=&quot;text-align: left&quot;&gt;&lt;span&gt;Entry:&lt;/span&gt;&lt;/div&gt;&lt;div style=&quot;text-align: left&quot;&gt;&lt;span&gt;Do: App process 2D photo&lt;/span&gt;&lt;/div&gt;&lt;div style=&quot;text-align: left&quot;&gt;&lt;span&gt;Exit&lt;/span&gt;&lt;/div&gt;" style="rounded=1;whiteSpace=wrap;html=1;" parent="1" vertex="1">
          <mxGeometry x="510" y="260" width="190" height="128" as="geometry" />
        </mxCell>
        <mxCell id="kqtZ1l1b22yVRVGchEDP-22" value="App receives 2D photo of client" style="text;html=1;strokeColor=none;fillColor=none;align=center;verticalAlign=middle;whiteSpace=wrap;rounded=0;" parent="1" vertex="1">
          <mxGeometry x="410" y="290" width="75" height="20" as="geometry" />
        </mxCell>
        <mxCell id="kqtZ1l1b22yVRVGchEDP-27" style="edgeStyle=orthogonalEdgeStyle;rounded=0;orthogonalLoop=1;jettySize=auto;html=1;exitX=0.5;exitY=1;exitDx=0;exitDy=0;entryX=0.5;entryY=0;entryDx=0;entryDy=0;" parent="1" source="kqtZ1l1b22yVRVGchEDP-23" target="kqtZ1l1b22yVRVGchEDP-26" edge="1">
          <mxGeometry relative="1" as="geometry" />
        </mxCell>
        <mxCell id="kqtZ1l1b22yVRVGchEDP-23" value="Using KNN&lt;br&gt;&lt;hr&gt;&lt;div style=&quot;text-align: left&quot;&gt;&lt;span&gt;Entry:&lt;/span&gt;&lt;/div&gt;&lt;div style=&quot;text-align: left&quot;&gt;&lt;span&gt;Do: Alg finds closest 40 faces based on XML file&lt;/span&gt;&lt;/div&gt;&lt;div style=&quot;text-align: left&quot;&gt;&lt;span&gt;Exit: Store found faces&lt;/span&gt;&lt;/div&gt;" style="rounded=1;whiteSpace=wrap;html=1;" parent="1" vertex="1">
          <mxGeometry x="880" y="260" width="190" height="128" as="geometry" />
        </mxCell>
        <mxCell id="kqtZ1l1b22yVRVGchEDP-25" value="App translated photos&amp;nbsp;" style="text;html=1;strokeColor=none;fillColor=none;align=center;verticalAlign=middle;whiteSpace=wrap;rounded=0;" parent="1" vertex="1">
          <mxGeometry x="740" y="290" width="75" height="20" as="geometry" />
        </mxCell>
        <mxCell id="kqtZ1l1b22yVRVGchEDP-31" style="edgeStyle=orthogonalEdgeStyle;rounded=0;orthogonalLoop=1;jettySize=auto;html=1;exitX=0;exitY=0.5;exitDx=0;exitDy=0;entryX=1;entryY=0.5;entryDx=0;entryDy=0;" parent="1" source="kqtZ1l1b22yVRVGchEDP-26" target="kqtZ1l1b22yVRVGchEDP-30" edge="1">
          <mxGeometry relative="1" as="geometry" />
        </mxCell>
        <mxCell id="kqtZ1l1b22yVRVGchEDP-26" value="Using KNN&lt;br&gt;&lt;hr&gt;&lt;div style=&quot;text-align: left&quot;&gt;&lt;div&gt;Entry:&lt;/div&gt;&lt;div&gt;Do: Alg finds closest 5-6 noses based on XML file&lt;/div&gt;&lt;div&gt;Exit: Store found noses&lt;/div&gt;&lt;/div&gt;" style="rounded=1;whiteSpace=wrap;html=1;" parent="1" vertex="1">
          <mxGeometry x="880" y="480" width="190" height="128" as="geometry" />
        </mxCell>
        <mxCell id="kqtZ1l1b22yVRVGchEDP-29" value="40 faces found by Alg" style="text;html=1;strokeColor=none;fillColor=none;align=center;verticalAlign=middle;whiteSpace=wrap;rounded=0;" parent="1" vertex="1">
          <mxGeometry x="980" y="410" width="75" height="20" as="geometry" />
        </mxCell>
        <mxCell id="kqtZ1l1b22yVRVGchEDP-35" style="edgeStyle=orthogonalEdgeStyle;rounded=0;orthogonalLoop=1;jettySize=auto;html=1;exitX=0.5;exitY=1;exitDx=0;exitDy=0;entryX=1;entryY=0.5;entryDx=0;entryDy=0;" parent="1" source="kqtZ1l1b22yVRVGchEDP-30" target="kqtZ1l1b22yVRVGchEDP-34" edge="1">
          <mxGeometry relative="1" as="geometry" />
        </mxCell>
        <mxCell id="kqtZ1l1b22yVRVGchEDP-30" value="Showing to a user the closest noses&lt;br&gt;&lt;hr&gt;&lt;div style=&quot;text-align: left&quot;&gt;&lt;div&gt;Entry:&lt;/div&gt;&lt;div&gt;Do: Display photos on screen for user&lt;/div&gt;&lt;div&gt;Exit:&amp;nbsp;&lt;/div&gt;&lt;/div&gt;" style="rounded=1;whiteSpace=wrap;html=1;" parent="1" vertex="1">
          <mxGeometry x="530" y="480" width="190" height="128" as="geometry" />
        </mxCell>
        <mxCell id="kqtZ1l1b22yVRVGchEDP-33" value="Desired amount of noses found" style="text;html=1;strokeColor=none;fillColor=none;align=center;verticalAlign=middle;whiteSpace=wrap;rounded=0;" parent="1" vertex="1">
          <mxGeometry x="775" y="510" width="75" height="20" as="geometry" />
        </mxCell>
        <mxCell id="kqtZ1l1b22yVRVGchEDP-38" style="edgeStyle=orthogonalEdgeStyle;rounded=0;orthogonalLoop=1;jettySize=auto;html=1;exitX=0;exitY=0.5;exitDx=0;exitDy=0;entryX=0.5;entryY=1;entryDx=0;entryDy=0;" parent="1" source="kqtZ1l1b22yVRVGchEDP-34" target="kqtZ1l1b22yVRVGchEDP-37" edge="1">
          <mxGeometry relative="1" as="geometry" />
        </mxCell>
        <mxCell id="kqtZ1l1b22yVRVGchEDP-34" value="Calculating required changes on patientâ€™s face&lt;br&gt;&lt;hr&gt;&lt;div style=&quot;text-align: left&quot;&gt;&lt;div&gt;Entry:&lt;/div&gt;&lt;div&gt;Do: AI calculates changes on patient face&lt;/div&gt;&lt;div&gt;Exit:&amp;nbsp;&lt;/div&gt;&lt;/div&gt;" style="rounded=1;whiteSpace=wrap;html=1;" parent="1" vertex="1">
          <mxGeometry x="352.5" y="650" width="190" height="128" as="geometry" />
        </mxCell>
        <mxCell id="kqtZ1l1b22yVRVGchEDP-36" value="User chooses a desired faces" style="text;html=1;strokeColor=none;fillColor=none;align=center;verticalAlign=middle;whiteSpace=wrap;rounded=0;" parent="1" vertex="1">
          <mxGeometry x="650" y="660" width="75" height="20" as="geometry" />
        </mxCell>
        <mxCell id="kqtZ1l1b22yVRVGchEDP-41" style="edgeStyle=orthogonalEdgeStyle;rounded=0;orthogonalLoop=1;jettySize=auto;html=1;exitX=0.5;exitY=0;exitDx=0;exitDy=0;entryX=0.132;entryY=1.008;entryDx=0;entryDy=0;entryPerimeter=0;" parent="1" source="kqtZ1l1b22yVRVGchEDP-37" target="kqtZ1l1b22yVRVGchEDP-19" edge="1">
          <mxGeometry relative="1" as="geometry" />
        </mxCell>
        <mxCell id="kqtZ1l1b22yVRVGchEDP-37" value="Displaying required changes on screen&lt;br&gt;&lt;hr&gt;&lt;div style=&quot;text-align: left&quot;&gt;&lt;div&gt;Entry:&lt;/div&gt;&lt;div&gt;Do: Display required changes in mm&lt;/div&gt;&lt;div&gt;Exit:&amp;nbsp;&lt;/div&gt;&lt;/div&gt;" style="rounded=1;whiteSpace=wrap;html=1;" parent="1" vertex="1">
          <mxGeometry x="130" y="540" width="190" height="128" as="geometry" />
        </mxCell>
        <mxCell id="kqtZ1l1b22yVRVGchEDP-39" value="AI calculated changes" style="text;html=1;strokeColor=none;fillColor=none;align=center;verticalAlign=middle;whiteSpace=wrap;rounded=0;" parent="1" vertex="1">
          <mxGeometry x="230" y="720" width="75" height="20" as="geometry" />
        </mxCell>
        <mxCell id="kqtZ1l1b22yVRVGchEDP-40" value="Doctor received a :new face:" style="text;html=1;strokeColor=none;fillColor=none;align=center;verticalAlign=middle;whiteSpace=wrap;rounded=0;" parent="1" vertex="1">
          <mxGeometry x="257.5" y="450" width="75" height="20" as="geometry" />
        </mxCell>
        <mxCell id="kqtZ1l1b22yVRVGchEDP-44" value="&lt;h1&gt;State Chart for Nose surgery. Level 0&lt;/h1&gt;&lt;p&gt;This state chart provides basic flow of the program with basic states in it. It allows us to&amp;nbsp; see what processes we might have in our app.&lt;/p&gt;" style="text;html=1;strokeColor=none;fillColor=none;spacing=5;spacingTop=-20;whiteSpace=wrap;overflow=hidden;rounded=0;" parent="1" vertex="1">
          <mxGeometry x="190" y="60" width="190" height="200" as="geometry" />
        </mxCell>
      </root>
    </mxGraphModel>
  </diagram>
</mxfile>
